<?xml version="1.0" encoding="utf-8"?>
<svg width="18px" height="16px" viewBox="0 0 18 16" version="1.1" xmlns:xlink="http://www.w3.org/1999/xlink" xmlns="http://www.w3.org/2000/svg">
  <desc>Created with Lunacy</desc>
  <path d="M12.9361 5.31277C12.8298 4.23009 12.2462 3.29738 11.414 2.74619C11.436 1.22646 12.6075 0.000474545 14.0516 0C15.5097 0 16.6915 1.24829 16.6915 2.78843C16.6915 4.32833 15.5097 5.57662 14.0516 5.57662C13.6522 5.57662 13.2755 5.48028 12.9361 5.31277ZM4.01724 5.5771C4.53368 5.5771 5.01417 5.41789 5.42121 5.14668C5.5506 4.25525 6.00302 3.47629 6.64929 2.94574C6.65199 2.89354 6.65671 2.84182 6.65671 2.78914C6.65671 1.24901 5.47468 0.000717163 4.01724 0.000717163C2.55891 0.000717163 1.37733 1.24901 1.37733 2.78914C1.37733 4.32857 2.55891 5.5771 4.01724 5.5771ZM11.7727 5.66702C11.7727 7.20692 10.5909 8.45545 9.13276 8.45545C7.67488 8.45545 6.4924 7.20716 6.4924 5.66726C6.4924 4.12736 7.67488 2.87883 9.13276 2.87883C10.5906 2.87883 11.7727 4.12712 11.7727 5.66702ZM5.48896 6.5C5.51559 7.40007 6.5 8.5 6.5 8.5C6.5 8.5 4 9.33691 4 12.2202L4 13.0941C1.61475 13.7778 0 12 0 12L0 9.33691C0 7.3685 1.13733 6.5 3.00112 6.5L5.48896 6.5ZM12.7768 6.5L14.9996 6.5C16.8631 6.5 18 7.3685 18 9.33691L18 12C18 12 17.1947 13.027 15 13.1119L15 12.2202C15 9.33691 11.5 8.5 11.5 8.5C11.5 8.5 12.7528 7.43936 12.7768 6.5ZM10.2526 9.33691L8.0125 9.33691C6.14871 9.33691 5 10.2473 5 12.216L5 15.1548C5 15.1548 6.93965 16 9.42389 16C11.9081 16 14 14.7837 14 14.7837L14 12.216C14.0007 10.2473 12.1164 9.33691 10.2526 9.33691Z" id="Clients" fill="#FFFFFF" fill-rule="evenodd" stroke="none" />
</svg>