<?xml version="1.0" encoding="utf-8"?>
<svg width="132px" height="36px" viewBox="0 0 132 36" version="1.1" xmlns:xlink="http://www.w3.org/1999/xlink" xmlns="http://www.w3.org/2000/svg">
  <desc>Created with Lunacy</desc>
  <g id="logo">
    <path d="M25 6C25 6 26 6 26 5C26 4 25 4 25 4L18 4L18 2C18 2 18 0 16 0L10 0C8 0 8 2 8 2L8 4L1 4C1 4 0 4 0 5C0 6 1 6 1 6L25 6ZM16 4L16 2L10 2L10 4L16 4ZM22 8L4 8C1 8 1 11 1 11L1 24.2676C0.402199 24.6134 0 25.2597 0 26C0 27.1046 0.895431 28 2 28C3.10457 28 4 27.1046 4 26C4 25.2597 3.5978 24.6134 3 24.2676L3 12C3 12 3 10 5 10L21 10C23 10 23 12 23 12L23 31C23 31 23 33.0288 21 33L3.73244 33C3.38663 32.4022 2.74028 32 2 32C0.895431 32 0 32.8954 0 34C0 35.1046 0.895431 36 2 36C2.74028 36 3.38663 35.5978 3.73244 35L22 35C25 35 25 32 25 32L25 11C25 11 25 8 22 8ZM9 14C9 14 9 13 10 13C11 13 11 14 11 14L11 29C11 29 11 30 10 30C9 30 9 29 9 29L9 14ZM16 13C15 13 15 14 15 14L15 29C15 29 15 30 16 30C17 30 17 29 17 29L17 14C17 14 17 13 16 13Z" id="Symbol" fill="#00D4FF" fill-rule="evenodd" stroke="none" />
    <path d="M2.18182 8.92634L2.23636 8.87141C3.72728 7.36995 5.52726 6.61923 7.63636 6.61923C9.74546 6.61923 11.5454 7.36995 13.0364 8.87141C14.5273 10.3729 15.2727 12.1856 15.2727 14.3096C15.2727 16.4336 14.5273 18.2464 13.0364 19.7478C11.5454 21.2493 9.74546 22 7.63636 22C5.52726 22 3.72728 21.2493 2.23636 19.7478C0.745447 18.2464 0 16.4336 0 14.3096L0 1.09863C0 0.796503 0.106817 0.53787 0.320455 0.322722C0.534092 0.107573 0.790908 0 1.09091 0C1.39091 0 1.64773 0.107573 1.86136 0.322722C2.075 0.53787 2.18182 0.796503 2.18182 1.09863L2.18182 8.92634ZM20.5977 4.29151C20.8659 4.02143 21 3.69871 21 3.32335C21 2.94798 20.8659 2.62526 20.5977 2.35518C20.3295 2.0851 20.0091 1.95006 19.6364 1.95006C19.2636 1.95006 18.9432 2.0851 18.675 2.35518C18.4068 2.62526 18.2727 2.94798 18.2727 3.32335C18.2727 3.69871 18.4068 4.02143 18.675 4.29151C18.9432 4.56159 19.2636 4.69663 19.6364 4.69663C20.0091 4.69663 20.3295 4.56159 20.5977 4.29151ZM24.3205 6.94195C24.1068 7.1571 24 7.41573 24 7.71785L24 20.9014C24 21.2035 24.1068 21.4621 24.3205 21.6773C24.5341 21.8924 24.7909 22 25.0909 22C25.3909 22 25.6477 21.8924 25.8614 21.6773C26.075 21.4621 26.1818 21.2035 26.1818 20.9014L26.1818 13.7603C26.1818 12.3962 26.6614 11.2312 27.6205 10.2653C28.5795 9.29941 29.7364 8.81648 31.0909 8.81648C32.4455 8.81648 33.6023 9.29941 34.5614 10.2653C35.5205 11.2312 36 12.3962 36 13.7603L36 20.9014C36 21.2035 36.1068 21.4621 36.3205 21.6773C36.5341 21.8924 36.7909 22 37.0909 22C37.3909 22 37.6477 21.8924 37.8614 21.6773C38.075 21.4621 38.1818 21.2035 38.1818 20.9014L38.1818 13.7603C38.1818 11.7919 37.4886 10.1097 36.1023 8.71348C34.7159 7.3173 33.0455 6.61923 31.0909 6.61923C29.1818 6.61923 27.5455 7.28297 26.1818 8.61049L26.1818 7.71785C26.1818 7.41573 26.075 7.1571 25.8614 6.94195C25.6477 6.7268 25.3909 6.61923 25.0909 6.61923C24.7909 6.61923 24.5341 6.7268 24.3205 6.94195ZM77.4546 19.6929C75.9273 21.231 74.1091 22 72 22C69.8909 22 68.0909 21.2493 66.6 19.7478C65.1091 18.2464 64.3636 16.4336 64.3636 14.3096C64.3636 12.1856 65.1091 10.3729 66.6 8.87141C68.0909 7.36995 69.8909 6.61923 72 6.61923C74.1091 6.61923 75.9091 7.36995 77.4 8.87141C78.8909 10.3729 79.6364 12.1856 79.6364 14.3096L79.6364 20.9014C79.6364 21.2035 79.5295 21.4621 79.3159 21.6773C79.1023 21.8924 78.8455 22 78.5455 22C78.2455 22 77.9886 21.8924 77.775 21.6773C77.5614 21.4621 77.4546 21.2035 77.4546 20.9014L77.4546 19.6929ZM18.5455 7.71785C18.5455 7.41573 18.6523 7.1571 18.8659 6.94195C19.0795 6.7268 19.3364 6.61923 19.6364 6.61923C19.9364 6.61923 20.1932 6.7268 20.4068 6.94195C20.6205 7.1571 20.7273 7.41573 20.7273 7.71785L20.7273 20.9014C20.7273 21.2035 20.6205 21.4621 20.4068 21.6773C20.1932 21.8924 19.9364 22 19.6364 22C19.3364 22 19.0795 21.8924 18.8659 21.6773C18.6523 21.4621 18.5455 21.2035 18.5455 20.9014L18.5455 7.71785ZM42.5454 20.9014C42.5454 21.2035 42.4386 21.4621 42.225 21.6773C42.0114 21.8924 41.7545 22 41.4545 22C41.1545 22 40.8977 21.8924 40.6841 21.6773C40.4704 21.4621 40.3636 21.2035 40.3636 20.9014L40.3636 7.71785C40.3636 7.41573 40.4704 7.1571 40.6841 6.94195C40.8977 6.7268 41.1545 6.61923 41.4545 6.61923C41.7545 6.61923 42.0114 6.7268 42.225 6.94195C42.4386 7.1571 42.5454 7.41573 42.5454 7.71785L42.5454 8.00624C43.6273 7.08156 44.9 6.61923 46.3636 6.61923C48.0182 6.61923 49.4318 7.20973 50.6045 8.39076C50.85 8.63795 51.0727 8.89888 51.2727 9.17353C51.4727 8.89888 51.6954 8.63795 51.9409 8.39076C53.1136 7.20973 54.5273 6.61923 56.1818 6.61923C57.8364 6.61923 59.25 7.20973 60.4227 8.39076C61.5955 9.57179 62.1818 10.9954 62.1818 12.6617L62.1818 20.9014C62.1818 21.2035 62.075 21.4621 61.8614 21.6773C61.6477 21.8924 61.3909 22 61.0909 22C60.7909 22 60.5341 21.8924 60.3204 21.6773C60.1068 21.4621 60 21.2035 60 20.9014L60 12.6617C60 11.5997 59.6273 10.6933 58.8818 9.94257C58.1364 9.19184 57.2364 8.81648 56.1818 8.81648C55.1273 8.81648 54.2273 9.19184 53.4818 9.94257C52.7364 10.6933 52.3636 11.5997 52.3636 12.6617L52.3636 20.9014C52.3636 21.2035 52.2568 21.4621 52.0432 21.6773C51.8295 21.8924 51.5727 22 51.2727 22C50.9727 22 50.7159 21.8924 50.5023 21.6773C50.2886 21.4621 50.1818 21.2035 50.1818 20.9014L50.1818 12.6617C50.1818 11.5997 49.8091 10.6933 49.0636 9.94257C48.3182 9.19184 47.4182 8.81648 46.3636 8.81648C45.3091 8.81648 44.4091 9.19184 43.6636 9.94257C42.9182 10.6933 42.5454 11.5997 42.5454 12.6617L42.5454 20.9014ZM82.1386 6.94195C81.925 7.1571 81.8182 7.41573 81.8182 7.71785L81.8182 20.9014C81.8182 21.2035 81.925 21.4621 82.1386 21.6773C82.3523 21.8924 82.6091 22 82.9091 22C83.2091 22 83.4659 21.8924 83.6795 21.6773C83.8932 21.4621 84 21.2035 84 20.9014L84 13.7603C84 12.3962 84.4795 11.2312 85.4386 10.2653C86.3977 9.29941 87.5545 8.81648 88.9091 8.81648C90.2636 8.81648 91.4204 9.29941 92.3795 10.2653C93.3386 11.2312 93.8182 12.3962 93.8182 13.7603L93.8182 20.9014C93.8182 21.2035 93.925 21.4621 94.1386 21.6773C94.3523 21.8924 94.6091 22 94.9091 22C95.2091 22 95.4659 21.8924 95.6795 21.6773C95.8932 21.4621 96 21.2035 96 20.9014L96 13.7603C96 11.7919 95.3068 10.1097 93.9204 8.71348C92.5341 7.31731 90.8636 6.61923 88.9091 6.61923C87 6.61923 85.3636 7.28297 84 8.61049L84 7.71785C84 7.41573 83.8932 7.1571 83.6795 6.94195C83.4659 6.7268 83.2091 6.61923 82.9091 6.61923C82.6091 6.61923 82.3523 6.7268 82.1386 6.94195ZM7.63636 19.8027C9.14546 19.8027 10.4318 19.2672 11.4955 18.196C12.5591 17.1248 13.0909 15.8294 13.0909 14.3096C13.0909 12.7898 12.5591 11.4944 11.4955 10.4232C10.4318 9.35205 9.14546 8.81648 7.63636 8.81648C6.12726 8.81648 4.84091 9.35205 3.77727 10.4232C2.71363 11.4944 2.18182 12.7898 2.18182 14.3096C2.18182 15.8294 2.71363 17.1248 3.77727 18.196C4.84091 19.2672 6.12726 19.8027 7.63636 19.8027ZM68.1409 10.4232C69.2046 9.35205 70.4909 8.81648 72 8.81648C73.5091 8.81648 74.7954 9.35205 75.8591 10.4232C76.9227 11.4944 77.4545 12.7898 77.4545 14.3096C77.4545 15.8294 76.9227 17.1248 75.8591 18.196C74.7954 19.2672 73.5091 19.8027 72 19.8027C70.4909 19.8027 69.2046 19.2672 68.1409 18.196C67.0773 17.1248 66.5455 15.8294 66.5455 14.3096C66.5455 12.7898 67.0773 11.4944 68.1409 10.4232Z" transform="translate(36 7)" id="Binman" fill="#FFFFFF" fill-rule="evenodd" stroke="none" />
  </g>
</svg>