<?xml version="1.0" encoding="utf-8"?>
<svg width="18px" height="16px" viewBox="0 0 18 16" version="1.1" xmlns:xlink="http://www.w3.org/1999/xlink" xmlns="http://www.w3.org/2000/svg">
  <desc>Created with Lunacy</desc>
  <path d="M17.2723 0L17.3348 0C17.5534 0 17.7251 0.0647118 17.8383 0.190091C17.9593 0.319515 18.0101 0.501517 17.9984 0.736097L17.9476 1.85642C17.9125 2.60465 17.8774 3.34884 17.8461 4.09302C17.8383 4.26694 17.8071 4.48938 17.6392 4.6633C17.5924 4.71183 17.5377 4.75227 17.4753 4.78868C17.3816 4.84125 17.2918 4.86552 17.202 4.86552C16.9874 4.86552 16.8468 4.71992 16.7453 4.61476L15.8905 3.73306L9.33328 10.5632C9.14982 10.7492 8.9117 10.8544 8.65407 10.8544C8.39644 10.8544 8.15442 10.7492 7.97486 10.5632L4.96526 7.44489L1.81513 10.7088C1.63557 10.8948 1.39745 11 1.13982 11C0.882192 11 0.640175 10.8948 0.460614 10.7088L0.281052 10.5227C-0.0936841 10.1345 -0.0936841 9.50758 0.281052 9.11931L4.28995 4.96967C4.46951 4.78362 4.70763 4.67846 4.96526 4.67846C5.22289 4.67846 5.46491 4.78362 5.64447 4.96967L8.65407 8.08797L14.3525 2.14358C14.1573 1.9454 13.9621 1.74318 13.7709 1.54095L13.4937 1.24975C13.3844 1.1365 13.1541 0.897877 13.3181 0.529828C13.3493 0.457027 13.3883 0.39636 13.4391 0.343782C13.5991 0.177958 13.8021 0.169869 13.9504 0.16178C15.059 0.109201 16.1637 0.0525784 17.2723 0ZM13 7.78992L13 15.6856C13 15.8571 13.1489 16 13.3359 16L15.6641 16C15.8473 16 16 15.8607 16 15.6856L16 4.6543L13 7.78992ZM5 15.6447C5 15.8385 5.14886 16 5.33588 16L7.66412 16C7.84733 16 8 15.8425 8 15.6447L8 11.5546L5 8.48596L5 15.6447ZM9.33588 16C9.14886 16 9 15.8642 9 15.7012L9 11.8194C9.11832 11.7515 9.23282 11.7029 9.33588 11.6112L12 8.80981L12 15.7012C12 15.8676 11.8473 16 11.6641 16L9.33588 16ZM1 15.6423C1 15.8374 1.14885 16 1.33588 16L3.66412 16C3.84733 16 4 15.8415 4 15.6423L4 9.45068L2.30916 11.2515C1.95038 11.6295 1.63202 12.0193 1 12.0193L1 15.6423Z" id="Reports" fill="#FFFFFF" fill-rule="evenodd" stroke="none" />
</svg>